<?xml version="1.0" encoding="UTF-8"?>
<svg xmlns="http://www.w3.org/2000/svg" xmlns:xlink="http://www.w3.org/1999/xlink" width="90px" height="20px" viewBox="0 0 89 20" version="1.1">
<g id="surface1">
<path style=" stroke:none;fill-rule:nonzero;fill:rgb(100%,0%,0%);fill-opacity:1;" d="M 27.789062 3.132812 C 27.460938 1.898438 26.5 0.929688 25.28125 0.597656 C 23.066406 0 14.191406 0 14.191406 0 C 14.191406 0 5.316406 0 3.101562 0.597656 C 1.878906 0.929688 0.921875 1.898438 0.59375 3.132812 C 0 5.363281 0 10.027344 0 10.027344 C 0 10.027344 0 14.6875 0.59375 16.921875 C 0.921875 18.15625 1.878906 19.125 3.101562 19.453125 C 5.316406 20.054688 14.191406 20.054688 14.191406 20.054688 C 14.191406 20.054688 23.066406 20.054688 25.28125 19.453125 C 26.5 19.125 27.460938 18.15625 27.789062 16.921875 C 28.382812 14.6875 28.382812 10.027344 28.382812 10.027344 C 28.382812 10.027344 28.378906 5.363281 27.789062 3.132812 Z M 27.789062 3.132812 "/>
<path style=" stroke:none;fill-rule:nonzero;fill:rgb(100%,100%,100%);fill-opacity:1;" d="M 11.351562 14.324219 L 18.722656 10.027344 L 11.351562 5.730469 Z M 11.351562 14.324219 "/>
<path style=" stroke:none;fill-rule:nonzero;fill:rgb(15.686275%,15.686275%,15.686275%);fill-opacity:1;" d="M 34.375 13.039062 L 31.1875 1.421875 L 33.96875 1.421875 L 35.085938 6.6875 C 35.371094 7.984375 35.578125 9.089844 35.714844 10.003906 L 35.796875 10.003906 C 35.890625 9.351562 36.097656 8.25 36.425781 6.707031 L 37.582031 1.421875 L 40.359375 1.421875 L 37.132812 13.039062 L 37.132812 18.609375 L 34.371094 18.609375 L 34.371094 13.039062 Z M 34.375 13.039062 "/>
<path style=" stroke:none;fill-rule:nonzero;fill:rgb(15.686275%,15.686275%,15.686275%);fill-opacity:1;" d="M 41.199219 18.242188 C 40.636719 17.859375 40.238281 17.265625 40 16.460938 C 39.761719 15.652344 39.644531 14.582031 39.644531 13.242188 L 39.644531 11.417969 C 39.644531 10.070312 39.777344 8.980469 40.050781 8.164062 C 40.320312 7.34375 40.746094 6.746094 41.320312 6.371094 C 41.894531 5.996094 42.648438 5.808594 43.582031 5.808594 C 44.503906 5.808594 45.238281 6 45.796875 6.378906 C 46.347656 6.761719 46.753906 7.363281 47.011719 8.171875 C 47.269531 8.988281 47.398438 10.070312 47.398438 11.417969 L 47.398438 13.242188 C 47.398438 14.582031 47.273438 15.65625 47.023438 16.46875 C 46.773438 17.28125 46.367188 17.875 45.804688 18.25 C 45.242188 18.625 44.480469 18.816406 43.523438 18.816406 C 42.53125 18.816406 41.757812 18.625 41.199219 18.242188 Z M 44.34375 16.273438 C 44.496094 15.863281 44.574219 15.199219 44.574219 14.269531 L 44.574219 10.355469 C 44.574219 9.457031 44.5 8.796875 44.34375 8.378906 C 44.1875 7.964844 43.914062 7.753906 43.519531 7.753906 C 43.140625 7.753906 42.871094 7.964844 42.71875 8.378906 C 42.5625 8.796875 42.484375 9.457031 42.484375 10.355469 L 42.484375 14.269531 C 42.484375 15.199219 42.558594 15.867188 42.710938 16.273438 C 42.859375 16.683594 43.128906 16.890625 43.519531 16.890625 C 43.914062 16.890625 44.1875 16.683594 44.34375 16.273438 Z M 44.34375 16.273438 "/>
<path style=" stroke:none;fill-rule:nonzero;fill:rgb(15.686275%,15.686275%,15.686275%);fill-opacity:1;" d="M 56.441406 18.613281 L 54.25 18.613281 L 54.007812 17.074219 L 53.945312 17.074219 C 53.351562 18.234375 52.457031 18.816406 51.265625 18.816406 C 50.441406 18.816406 49.832031 18.542969 49.441406 17.996094 C 49.046875 17.449219 48.851562 16.597656 48.851562 15.4375 L 48.851562 6.054688 L 51.652344 6.054688 L 51.652344 15.269531 C 51.652344 15.832031 51.714844 16.230469 51.835938 16.46875 C 51.957031 16.707031 52.160156 16.828125 52.445312 16.828125 C 52.6875 16.828125 52.921875 16.75 53.144531 16.601562 C 53.371094 16.449219 53.535156 16.257812 53.644531 16.027344 L 53.644531 6.050781 L 56.441406 6.050781 Z M 56.441406 18.613281 "/>
<path style=" stroke:none;fill-rule:nonzero;fill:rgb(15.686275%,15.686275%,15.686275%);fill-opacity:1;" d="M 64.050781 3.699219 L 61.273438 3.699219 L 61.273438 18.613281 L 58.53125 18.613281 L 58.53125 3.699219 L 55.75 3.699219 L 55.75 1.425781 L 64.050781 1.425781 Z M 64.050781 3.699219 "/>
<path style=" stroke:none;fill-rule:nonzero;fill:rgb(15.686275%,15.686275%,15.686275%);fill-opacity:1;" d="M 70.808594 18.613281 L 68.617188 18.613281 L 68.375 17.074219 L 68.3125 17.074219 C 67.71875 18.234375 66.824219 18.816406 65.632812 18.816406 C 64.808594 18.816406 64.199219 18.542969 63.808594 17.996094 C 63.414062 17.449219 63.21875 16.597656 63.21875 15.4375 L 63.21875 6.054688 L 66.019531 6.054688 L 66.019531 15.269531 C 66.019531 15.832031 66.078125 16.230469 66.203125 16.46875 C 66.324219 16.707031 66.527344 16.828125 66.8125 16.828125 C 67.054688 16.828125 67.289062 16.75 67.511719 16.601562 C 67.738281 16.449219 67.898438 16.257812 68.011719 16.027344 L 68.011719 6.050781 L 70.808594 6.050781 Z M 70.808594 18.613281 "/>
<path style=" stroke:none;fill-rule:nonzero;fill:rgb(15.686275%,15.686275%,15.686275%);fill-opacity:1;" d="M 80.078125 8.058594 C 79.910156 7.269531 79.636719 6.695312 79.257812 6.339844 C 78.878906 5.984375 78.359375 5.804688 77.695312 5.804688 C 77.179688 5.804688 76.699219 5.953125 76.253906 6.246094 C 75.804688 6.542969 75.460938 6.925781 75.21875 7.40625 L 75.195312 7.40625 L 75.195312 0.789062 L 72.5 0.789062 L 72.5 18.609375 L 74.8125 18.609375 L 75.097656 17.421875 L 75.15625 17.421875 C 75.375 17.847656 75.699219 18.179688 76.132812 18.425781 C 76.5625 18.671875 77.042969 18.792969 77.574219 18.792969 C 78.519531 18.792969 79.21875 18.351562 79.664062 17.472656 C 80.109375 16.589844 80.335938 15.214844 80.335938 13.34375 L 80.335938 11.355469 C 80.335938 9.953125 80.246094 8.851562 80.078125 8.058594 Z M 77.511719 13.183594 C 77.511719 14.097656 77.476562 14.816406 77.398438 15.335938 C 77.324219 15.851562 77.203125 16.222656 77.023438 16.441406 C 76.847656 16.660156 76.609375 16.769531 76.3125 16.769531 C 76.082031 16.769531 75.871094 16.714844 75.671875 16.601562 C 75.476562 16.496094 75.316406 16.328125 75.195312 16.113281 L 75.195312 8.984375 C 75.289062 8.640625 75.453125 8.363281 75.683594 8.144531 C 75.914062 7.925781 76.167969 7.816406 76.433594 7.816406 C 76.71875 7.816406 76.941406 7.929688 77.09375 8.152344 C 77.25 8.378906 77.359375 8.757812 77.417969 9.289062 C 77.480469 9.824219 77.507812 10.582031 77.507812 11.5625 L 77.507812 13.183594 Z M 77.511719 13.183594 "/>
<path style=" stroke:none;fill-rule:nonzero;fill:rgb(15.686275%,15.686275%,15.686275%);fill-opacity:1;" d="M 84.308594 13.90625 C 84.308594 14.714844 84.332031 15.316406 84.378906 15.722656 C 84.425781 16.125 84.523438 16.417969 84.671875 16.601562 C 84.824219 16.785156 85.050781 16.878906 85.363281 16.878906 C 85.78125 16.878906 86.070312 16.714844 86.222656 16.386719 C 86.382812 16.058594 86.464844 15.511719 86.480469 14.746094 L 88.894531 14.890625 C 88.910156 15 88.914062 15.152344 88.914062 15.339844 C 88.914062 16.5 88.601562 17.371094 87.972656 17.941406 C 87.34375 18.515625 86.453125 18.804688 85.304688 18.804688 C 83.921875 18.804688 82.957031 18.367188 82.402344 17.492188 C 81.847656 16.617188 81.570312 15.265625 81.570312 13.4375 L 81.570312 11.242188 C 81.570312 9.359375 81.859375 7.980469 82.433594 7.113281 C 83.007812 6.246094 83.992188 5.8125 85.386719 5.8125 C 86.347656 5.8125 87.085938 5.988281 87.597656 6.34375 C 88.113281 6.703125 88.472656 7.253906 88.683594 8.003906 C 88.894531 8.757812 89 9.796875 89 11.121094 L 89 13.269531 L 84.308594 13.269531 Z M 84.664062 7.988281 C 84.519531 8.167969 84.425781 8.457031 84.378906 8.859375 C 84.332031 9.261719 84.308594 9.875 84.308594 10.695312 L 84.308594 11.59375 L 86.359375 11.59375 L 86.359375 10.695312 C 86.359375 9.886719 86.328125 9.277344 86.277344 8.859375 C 86.222656 8.441406 86.125 8.148438 85.980469 7.976562 C 85.839844 7.808594 85.621094 7.71875 85.324219 7.71875 C 85.023438 7.722656 84.804688 7.8125 84.664062 7.988281 Z M 84.664062 7.988281 "/>
</g>
</svg>
